<mxfile host="Electron" modified="2023-07-28T09:25:18.181Z" agent="Mozilla/5.0 (Macintosh; Intel Mac OS X 10_15_7) AppleWebKit/537.36 (KHTML, like Gecko) draw.io/21.6.5 Chrome/114.0.5735.243 Electron/25.3.1 Safari/537.36" etag="ZHcFaBoScejOhLn6g6cX" version="21.6.5" type="device">
  <diagram id="C5RBs43oDa-KdzZeNtuy" name="Page-1">
    <mxGraphModel dx="1700" dy="613" grid="1" gridSize="10" guides="1" tooltips="1" connect="1" arrows="1" fold="1" page="1" pageScale="1" pageWidth="827" pageHeight="1169" math="0" shadow="0">
      <root>
        <mxCell id="WIyWlLk6GJQsqaUBKTNV-0" />
        <mxCell id="WIyWlLk6GJQsqaUBKTNV-1" parent="WIyWlLk6GJQsqaUBKTNV-0" />
        <mxCell id="JXjOGkdLmgAwwefVi_oL-4" value="" style="edgeStyle=orthogonalEdgeStyle;rounded=0;orthogonalLoop=1;jettySize=auto;html=1;" edge="1" parent="WIyWlLk6GJQsqaUBKTNV-1" source="WIyWlLk6GJQsqaUBKTNV-3" target="JXjOGkdLmgAwwefVi_oL-0">
          <mxGeometry relative="1" as="geometry" />
        </mxCell>
        <mxCell id="WIyWlLk6GJQsqaUBKTNV-3" value="&lt;font face=&quot;Courier New&quot;&gt;pd.read_csv&lt;/font&gt;" style="rounded=1;whiteSpace=wrap;html=1;fontSize=12;glass=0;strokeWidth=1;shadow=0;" parent="WIyWlLk6GJQsqaUBKTNV-1" vertex="1">
          <mxGeometry x="160" y="80" width="120" height="40" as="geometry" />
        </mxCell>
        <mxCell id="JXjOGkdLmgAwwefVi_oL-2" value="" style="edgeStyle=orthogonalEdgeStyle;rounded=0;orthogonalLoop=1;jettySize=auto;html=1;" edge="1" parent="WIyWlLk6GJQsqaUBKTNV-1" source="JXjOGkdLmgAwwefVi_oL-0" target="JXjOGkdLmgAwwefVi_oL-1">
          <mxGeometry relative="1" as="geometry" />
        </mxCell>
        <mxCell id="JXjOGkdLmgAwwefVi_oL-0" value="Instantiate &lt;font face=&quot;Courier New&quot;&gt;MetaData&lt;/font&gt;" style="rounded=1;whiteSpace=wrap;html=1;fontSize=12;glass=0;strokeWidth=1;shadow=0;" vertex="1" parent="WIyWlLk6GJQsqaUBKTNV-1">
          <mxGeometry x="140" y="170" width="160" height="40" as="geometry" />
        </mxCell>
        <mxCell id="JXjOGkdLmgAwwefVi_oL-6" value="" style="edgeStyle=orthogonalEdgeStyle;rounded=0;orthogonalLoop=1;jettySize=auto;html=1;" edge="1" parent="WIyWlLk6GJQsqaUBKTNV-1" source="JXjOGkdLmgAwwefVi_oL-1" target="JXjOGkdLmgAwwefVi_oL-5">
          <mxGeometry relative="1" as="geometry" />
        </mxCell>
        <mxCell id="JXjOGkdLmgAwwefVi_oL-1" value="Apply dtypes" style="rounded=1;whiteSpace=wrap;html=1;fontSize=12;glass=0;strokeWidth=1;shadow=0;" vertex="1" parent="WIyWlLk6GJQsqaUBKTNV-1">
          <mxGeometry x="160" y="260" width="120" height="40" as="geometry" />
        </mxCell>
        <mxCell id="JXjOGkdLmgAwwefVi_oL-9" value="" style="edgeStyle=orthogonalEdgeStyle;rounded=0;orthogonalLoop=1;jettySize=auto;html=1;" edge="1" parent="WIyWlLk6GJQsqaUBKTNV-1" source="JXjOGkdLmgAwwefVi_oL-5" target="JXjOGkdLmgAwwefVi_oL-8">
          <mxGeometry relative="1" as="geometry" />
        </mxCell>
        <mxCell id="JXjOGkdLmgAwwefVi_oL-5" value="Numericise datetimes" style="rounded=1;whiteSpace=wrap;html=1;fontSize=12;glass=0;strokeWidth=1;shadow=0;" vertex="1" parent="WIyWlLk6GJQsqaUBKTNV-1">
          <mxGeometry x="140" y="350" width="160" height="40" as="geometry" />
        </mxCell>
        <mxCell id="JXjOGkdLmgAwwefVi_oL-11" value="" style="edgeStyle=orthogonalEdgeStyle;rounded=0;orthogonalLoop=1;jettySize=auto;html=1;" edge="1" parent="WIyWlLk6GJQsqaUBKTNV-1" source="JXjOGkdLmgAwwefVi_oL-8" target="JXjOGkdLmgAwwefVi_oL-10">
          <mxGeometry relative="1" as="geometry" />
        </mxCell>
        <mxCell id="JXjOGkdLmgAwwefVi_oL-13" value="" style="edgeStyle=orthogonalEdgeStyle;rounded=0;orthogonalLoop=1;jettySize=auto;html=1;" edge="1" parent="WIyWlLk6GJQsqaUBKTNV-1" source="JXjOGkdLmgAwwefVi_oL-8" target="JXjOGkdLmgAwwefVi_oL-12">
          <mxGeometry relative="1" as="geometry" />
        </mxCell>
        <mxCell id="JXjOGkdLmgAwwefVi_oL-8" value="Drop or Impute missingness?" style="rhombus;whiteSpace=wrap;html=1;spacing=3;" vertex="1" parent="WIyWlLk6GJQsqaUBKTNV-1">
          <mxGeometry x="140" y="440" width="160" height="80" as="geometry" />
        </mxCell>
        <mxCell id="JXjOGkdLmgAwwefVi_oL-64" value="" style="edgeStyle=orthogonalEdgeStyle;rounded=0;orthogonalLoop=1;jettySize=auto;html=1;" edge="1" parent="WIyWlLk6GJQsqaUBKTNV-1" source="JXjOGkdLmgAwwefVi_oL-10" target="JXjOGkdLmgAwwefVi_oL-62">
          <mxGeometry relative="1" as="geometry" />
        </mxCell>
        <mxCell id="JXjOGkdLmgAwwefVi_oL-10" value="Remove missingness from column" style="rounded=1;whiteSpace=wrap;html=1;spacing=3;" vertex="1" parent="WIyWlLk6GJQsqaUBKTNV-1">
          <mxGeometry x="350" y="460" width="160" height="40" as="geometry" />
        </mxCell>
        <mxCell id="JXjOGkdLmgAwwefVi_oL-63" value="" style="edgeStyle=orthogonalEdgeStyle;rounded=0;orthogonalLoop=1;jettySize=auto;html=1;" edge="1" parent="WIyWlLk6GJQsqaUBKTNV-1" source="JXjOGkdLmgAwwefVi_oL-12" target="JXjOGkdLmgAwwefVi_oL-62">
          <mxGeometry relative="1" as="geometry" />
        </mxCell>
        <mxCell id="JXjOGkdLmgAwwefVi_oL-12" value="Instantiate &lt;font face=&quot;Courier New&quot;&gt;missingness_carrier&lt;/font&gt;" style="rounded=1;whiteSpace=wrap;html=1;spacing=3;" vertex="1" parent="WIyWlLk6GJQsqaUBKTNV-1">
          <mxGeometry x="140" y="570" width="160" height="40" as="geometry" />
        </mxCell>
        <mxCell id="JXjOGkdLmgAwwefVi_oL-14" value="Categorical?" style="rhombus;whiteSpace=wrap;html=1;spacing=3;" vertex="1" parent="WIyWlLk6GJQsqaUBKTNV-1">
          <mxGeometry x="350" y="790" width="160" height="80" as="geometry" />
        </mxCell>
        <mxCell id="JXjOGkdLmgAwwefVi_oL-17" value="Y" style="text;html=1;strokeColor=none;fillColor=none;align=center;verticalAlign=middle;whiteSpace=wrap;rounded=0;" vertex="1" parent="WIyWlLk6GJQsqaUBKTNV-1">
          <mxGeometry x="300" y="460" width="50" height="20" as="geometry" />
        </mxCell>
        <mxCell id="JXjOGkdLmgAwwefVi_oL-18" value="N" style="text;html=1;strokeColor=none;fillColor=none;align=center;verticalAlign=middle;whiteSpace=wrap;rounded=0;" vertex="1" parent="WIyWlLk6GJQsqaUBKTNV-1">
          <mxGeometry x="220" y="520" width="20" height="50" as="geometry" />
        </mxCell>
        <mxCell id="JXjOGkdLmgAwwefVi_oL-19" value="" style="edgeStyle=orthogonalEdgeStyle;rounded=0;orthogonalLoop=1;jettySize=auto;html=1;" edge="1" parent="WIyWlLk6GJQsqaUBKTNV-1">
          <mxGeometry relative="1" as="geometry">
            <mxPoint x="430" y="870" as="sourcePoint" />
            <mxPoint x="430" y="920" as="targetPoint" />
          </mxGeometry>
        </mxCell>
        <mxCell id="JXjOGkdLmgAwwefVi_oL-20" value="N" style="text;html=1;strokeColor=none;fillColor=none;align=center;verticalAlign=middle;whiteSpace=wrap;rounded=0;" vertex="1" parent="WIyWlLk6GJQsqaUBKTNV-1">
          <mxGeometry x="430" y="870" width="20" height="50" as="geometry" />
        </mxCell>
        <mxCell id="JXjOGkdLmgAwwefVi_oL-21" value="" style="edgeStyle=orthogonalEdgeStyle;rounded=0;orthogonalLoop=1;jettySize=auto;html=1;" edge="1" parent="WIyWlLk6GJQsqaUBKTNV-1">
          <mxGeometry relative="1" as="geometry">
            <mxPoint x="510" y="830" as="sourcePoint" />
            <mxPoint x="560" y="830" as="targetPoint" />
          </mxGeometry>
        </mxCell>
        <mxCell id="JXjOGkdLmgAwwefVi_oL-22" value="Y" style="text;html=1;strokeColor=none;fillColor=none;align=center;verticalAlign=middle;whiteSpace=wrap;rounded=0;" vertex="1" parent="WIyWlLk6GJQsqaUBKTNV-1">
          <mxGeometry x="510" y="810" width="50" height="20" as="geometry" />
        </mxCell>
        <mxCell id="JXjOGkdLmgAwwefVi_oL-58" value="" style="edgeStyle=orthogonalEdgeStyle;rounded=0;orthogonalLoop=1;jettySize=auto;html=1;" edge="1" parent="WIyWlLk6GJQsqaUBKTNV-1" target="JXjOGkdLmgAwwefVi_oL-57">
          <mxGeometry relative="1" as="geometry">
            <mxPoint x="660.0000000000005" y="850" as="sourcePoint" />
          </mxGeometry>
        </mxCell>
        <mxCell id="JXjOGkdLmgAwwefVi_oL-23" value="Apply &lt;font face=&quot;Courier New&quot;&gt;OHECategoricalTransformer&lt;/font&gt;" style="rounded=1;whiteSpace=wrap;html=1;fontSize=12;glass=0;strokeWidth=1;shadow=0;" vertex="1" parent="WIyWlLk6GJQsqaUBKTNV-1">
          <mxGeometry x="560" y="810" width="200" height="40" as="geometry" />
        </mxCell>
        <mxCell id="JXjOGkdLmgAwwefVi_oL-26" value="" style="edgeStyle=orthogonalEdgeStyle;rounded=0;orthogonalLoop=1;jettySize=auto;html=1;" edge="1" parent="WIyWlLk6GJQsqaUBKTNV-1" source="JXjOGkdLmgAwwefVi_oL-24" target="JXjOGkdLmgAwwefVi_oL-25">
          <mxGeometry relative="1" as="geometry" />
        </mxCell>
        <mxCell id="JXjOGkdLmgAwwefVi_oL-24" value="Apply &lt;font face=&quot;Courier New&quot;&gt;ClusterContinuousTransformer&lt;/font&gt;" style="rounded=1;whiteSpace=wrap;html=1;fontSize=12;glass=0;strokeWidth=1;shadow=0;" vertex="1" parent="WIyWlLk6GJQsqaUBKTNV-1">
          <mxGeometry x="270" y="920" width="220" height="40" as="geometry" />
        </mxCell>
        <mxCell id="JXjOGkdLmgAwwefVi_oL-32" value="" style="edgeStyle=orthogonalEdgeStyle;rounded=0;orthogonalLoop=1;jettySize=auto;html=1;" edge="1" parent="WIyWlLk6GJQsqaUBKTNV-1" source="JXjOGkdLmgAwwefVi_oL-25" target="JXjOGkdLmgAwwefVi_oL-29">
          <mxGeometry relative="1" as="geometry" />
        </mxCell>
        <mxCell id="JXjOGkdLmgAwwefVi_oL-34" value="" style="edgeStyle=orthogonalEdgeStyle;rounded=0;orthogonalLoop=1;jettySize=auto;html=1;" edge="1" parent="WIyWlLk6GJQsqaUBKTNV-1" source="JXjOGkdLmgAwwefVi_oL-25" target="JXjOGkdLmgAwwefVi_oL-33">
          <mxGeometry relative="1" as="geometry" />
        </mxCell>
        <mxCell id="JXjOGkdLmgAwwefVi_oL-25" value="Constraints?" style="rhombus;whiteSpace=wrap;html=1;spacing=3;" vertex="1" parent="WIyWlLk6GJQsqaUBKTNV-1">
          <mxGeometry x="60" y="900" width="160" height="80" as="geometry" />
        </mxCell>
        <mxCell id="JXjOGkdLmgAwwefVi_oL-39" value="" style="edgeStyle=orthogonalEdgeStyle;rounded=0;orthogonalLoop=1;jettySize=auto;html=1;" edge="1" parent="WIyWlLk6GJQsqaUBKTNV-1" source="JXjOGkdLmgAwwefVi_oL-29" target="JXjOGkdLmgAwwefVi_oL-31">
          <mxGeometry relative="1" as="geometry" />
        </mxCell>
        <mxCell id="JXjOGkdLmgAwwefVi_oL-29" value="Constraint Transform" style="rounded=1;whiteSpace=wrap;html=1;spacing=3;" vertex="1" parent="WIyWlLk6GJQsqaUBKTNV-1">
          <mxGeometry x="-150" y="920" width="160" height="40" as="geometry" />
        </mxCell>
        <mxCell id="JXjOGkdLmgAwwefVi_oL-38" value="" style="edgeStyle=orthogonalEdgeStyle;rounded=0;orthogonalLoop=1;jettySize=auto;html=1;" edge="1" parent="WIyWlLk6GJQsqaUBKTNV-1" source="JXjOGkdLmgAwwefVi_oL-31" target="JXjOGkdLmgAwwefVi_oL-37">
          <mxGeometry relative="1" as="geometry" />
        </mxCell>
        <mxCell id="JXjOGkdLmgAwwefVi_oL-42" value="" style="edgeStyle=orthogonalEdgeStyle;rounded=0;orthogonalLoop=1;jettySize=auto;html=1;" edge="1" parent="WIyWlLk6GJQsqaUBKTNV-1" source="JXjOGkdLmgAwwefVi_oL-31" target="JXjOGkdLmgAwwefVi_oL-36">
          <mxGeometry relative="1" as="geometry" />
        </mxCell>
        <mxCell id="JXjOGkdLmgAwwefVi_oL-31" value="All adhering?" style="rhombus;whiteSpace=wrap;html=1;spacing=3;" vertex="1" parent="WIyWlLk6GJQsqaUBKTNV-1">
          <mxGeometry x="-150" y="1010" width="160" height="80" as="geometry" />
        </mxCell>
        <mxCell id="JXjOGkdLmgAwwefVi_oL-56" style="edgeStyle=orthogonalEdgeStyle;rounded=0;orthogonalLoop=1;jettySize=auto;html=1;" edge="1" parent="WIyWlLk6GJQsqaUBKTNV-1" source="JXjOGkdLmgAwwefVi_oL-33" target="JXjOGkdLmgAwwefVi_oL-55">
          <mxGeometry relative="1" as="geometry">
            <Array as="points">
              <mxPoint x="180" y="1095" />
              <mxPoint x="260" y="1095" />
            </Array>
          </mxGeometry>
        </mxCell>
        <mxCell id="JXjOGkdLmgAwwefVi_oL-33" value="Remove missingness from column" style="rounded=1;whiteSpace=wrap;html=1;spacing=3;" vertex="1" parent="WIyWlLk6GJQsqaUBKTNV-1">
          <mxGeometry x="60" y="1030" width="160" height="40" as="geometry" />
        </mxCell>
        <mxCell id="JXjOGkdLmgAwwefVi_oL-35" value="N" style="text;html=1;strokeColor=none;fillColor=none;align=center;verticalAlign=middle;whiteSpace=wrap;rounded=0;" vertex="1" parent="WIyWlLk6GJQsqaUBKTNV-1">
          <mxGeometry x="140" y="980" width="20" height="50" as="geometry" />
        </mxCell>
        <mxCell id="JXjOGkdLmgAwwefVi_oL-45" value="" style="edgeStyle=orthogonalEdgeStyle;rounded=0;orthogonalLoop=1;jettySize=auto;html=1;" edge="1" parent="WIyWlLk6GJQsqaUBKTNV-1" source="JXjOGkdLmgAwwefVi_oL-36" target="JXjOGkdLmgAwwefVi_oL-44">
          <mxGeometry relative="1" as="geometry" />
        </mxCell>
        <mxCell id="JXjOGkdLmgAwwefVi_oL-47" style="edgeStyle=orthogonalEdgeStyle;rounded=0;orthogonalLoop=1;jettySize=auto;html=1;entryX=0.25;entryY=1;entryDx=0;entryDy=0;" edge="1" parent="WIyWlLk6GJQsqaUBKTNV-1" source="JXjOGkdLmgAwwefVi_oL-36" target="JXjOGkdLmgAwwefVi_oL-33">
          <mxGeometry relative="1" as="geometry">
            <Array as="points">
              <mxPoint x="60" y="1180" />
              <mxPoint x="60" y="1120" />
              <mxPoint x="100" y="1120" />
            </Array>
          </mxGeometry>
        </mxCell>
        <mxCell id="JXjOGkdLmgAwwefVi_oL-36" value="Missingness in reference?" style="rhombus;whiteSpace=wrap;html=1;spacing=14;" vertex="1" parent="WIyWlLk6GJQsqaUBKTNV-1">
          <mxGeometry x="-150" y="1140" width="160" height="80" as="geometry" />
        </mxCell>
        <mxCell id="JXjOGkdLmgAwwefVi_oL-37" value="Create&amp;nbsp;&lt;font face=&quot;Courier New&quot;&gt;&amp;lt;col&amp;gt;_&amp;lt;constraint&amp;gt;_fail&lt;/font&gt;" style="rounded=1;whiteSpace=wrap;html=1;spacing=3;" vertex="1" parent="WIyWlLk6GJQsqaUBKTNV-1">
          <mxGeometry x="-440" y="1030" width="240" height="40" as="geometry" />
        </mxCell>
        <mxCell id="JXjOGkdLmgAwwefVi_oL-40" value="N" style="text;html=1;strokeColor=none;fillColor=none;align=center;verticalAlign=middle;whiteSpace=wrap;rounded=0;" vertex="1" parent="WIyWlLk6GJQsqaUBKTNV-1">
          <mxGeometry x="-200" y="1030" width="50" height="20" as="geometry" />
        </mxCell>
        <mxCell id="JXjOGkdLmgAwwefVi_oL-41" value="" style="edgeStyle=orthogonalEdgeStyle;rounded=0;orthogonalLoop=1;jettySize=auto;html=1;exitX=0.5;exitY=1;exitDx=0;exitDy=0;entryX=0;entryY=0.5;entryDx=0;entryDy=0;" edge="1" parent="WIyWlLk6GJQsqaUBKTNV-1" source="JXjOGkdLmgAwwefVi_oL-37" target="JXjOGkdLmgAwwefVi_oL-36">
          <mxGeometry relative="1" as="geometry">
            <mxPoint x="-60" y="970" as="sourcePoint" />
            <mxPoint x="-60" y="1020" as="targetPoint" />
          </mxGeometry>
        </mxCell>
        <mxCell id="JXjOGkdLmgAwwefVi_oL-43" value="Y" style="text;html=1;strokeColor=none;fillColor=none;align=center;verticalAlign=middle;whiteSpace=wrap;rounded=0;" vertex="1" parent="WIyWlLk6GJQsqaUBKTNV-1">
          <mxGeometry x="-70" y="1090" width="20" height="50" as="geometry" />
        </mxCell>
        <mxCell id="JXjOGkdLmgAwwefVi_oL-49" style="edgeStyle=orthogonalEdgeStyle;rounded=0;orthogonalLoop=1;jettySize=auto;html=1;" edge="1" parent="WIyWlLk6GJQsqaUBKTNV-1" source="JXjOGkdLmgAwwefVi_oL-44">
          <mxGeometry relative="1" as="geometry">
            <mxPoint x="100" y="1070" as="targetPoint" />
            <Array as="points">
              <mxPoint x="100" y="1290" />
              <mxPoint x="100" y="1070" />
            </Array>
          </mxGeometry>
        </mxCell>
        <mxCell id="JXjOGkdLmgAwwefVi_oL-52" value="" style="edgeStyle=orthogonalEdgeStyle;rounded=0;orthogonalLoop=1;jettySize=auto;html=1;" edge="1" parent="WIyWlLk6GJQsqaUBKTNV-1" source="JXjOGkdLmgAwwefVi_oL-44" target="JXjOGkdLmgAwwefVi_oL-51">
          <mxGeometry relative="1" as="geometry" />
        </mxCell>
        <mxCell id="JXjOGkdLmgAwwefVi_oL-44" value="Create &lt;font face=&quot;Courier New&quot;&gt;&amp;lt;col&amp;gt;_null_&amp;lt;constraint&amp;gt;_flag&lt;/font&gt;" style="rounded=1;whiteSpace=wrap;html=1;spacing=3;" vertex="1" parent="WIyWlLk6GJQsqaUBKTNV-1">
          <mxGeometry x="-180" y="1270" width="220" height="40" as="geometry" />
        </mxCell>
        <mxCell id="JXjOGkdLmgAwwefVi_oL-46" value="Y" style="text;html=1;strokeColor=none;fillColor=none;align=center;verticalAlign=middle;whiteSpace=wrap;rounded=0;" vertex="1" parent="WIyWlLk6GJQsqaUBKTNV-1">
          <mxGeometry x="-70" y="1220" width="20" height="50" as="geometry" />
        </mxCell>
        <mxCell id="JXjOGkdLmgAwwefVi_oL-50" value="N" style="text;html=1;strokeColor=none;fillColor=none;align=center;verticalAlign=middle;whiteSpace=wrap;rounded=0;" vertex="1" parent="WIyWlLk6GJQsqaUBKTNV-1">
          <mxGeometry x="10" y="1160" width="50" height="20" as="geometry" />
        </mxCell>
        <mxCell id="JXjOGkdLmgAwwefVi_oL-53" style="edgeStyle=orthogonalEdgeStyle;rounded=0;orthogonalLoop=1;jettySize=auto;html=1;entryX=0.25;entryY=0;entryDx=0;entryDy=0;" edge="1" parent="WIyWlLk6GJQsqaUBKTNV-1" source="JXjOGkdLmgAwwefVi_oL-51" target="JXjOGkdLmgAwwefVi_oL-24">
          <mxGeometry relative="1" as="geometry">
            <Array as="points">
              <mxPoint x="-460" y="1380" />
              <mxPoint x="-460" y="880" />
              <mxPoint x="325" y="880" />
            </Array>
          </mxGeometry>
        </mxCell>
        <mxCell id="JXjOGkdLmgAwwefVi_oL-51" value="Create &lt;font face=&quot;Courier New&quot;&gt;&amp;lt;col&amp;gt;_null_&amp;lt;constraint&amp;gt; &lt;/font&gt;with other base constraints and compatible reference constraints" style="rounded=1;whiteSpace=wrap;html=1;spacing=3;" vertex="1" parent="WIyWlLk6GJQsqaUBKTNV-1">
          <mxGeometry x="-230" y="1360" width="320" height="40" as="geometry" />
        </mxCell>
        <mxCell id="JXjOGkdLmgAwwefVi_oL-61" style="edgeStyle=orthogonalEdgeStyle;rounded=0;orthogonalLoop=1;jettySize=auto;html=1;entryX=0.25;entryY=0;entryDx=0;entryDy=0;" edge="1" parent="WIyWlLk6GJQsqaUBKTNV-1" source="JXjOGkdLmgAwwefVi_oL-55" target="JXjOGkdLmgAwwefVi_oL-59">
          <mxGeometry relative="1" as="geometry" />
        </mxCell>
        <mxCell id="JXjOGkdLmgAwwefVi_oL-55" value="Create &lt;font face=&quot;Courier New&quot;&gt;&amp;lt;col&amp;gt;_normalised&lt;/font&gt;&amp;nbsp;and &lt;font face=&quot;Courier New&quot;&gt;&amp;lt;col&amp;gt;_c{i in 1:n_clusters}&lt;/font&gt;" style="rounded=1;whiteSpace=wrap;html=1;spacing=3;" vertex="1" parent="WIyWlLk6GJQsqaUBKTNV-1">
          <mxGeometry x="150" y="1120" width="220" height="40" as="geometry" />
        </mxCell>
        <mxCell id="JXjOGkdLmgAwwefVi_oL-60" style="edgeStyle=orthogonalEdgeStyle;rounded=0;orthogonalLoop=1;jettySize=auto;html=1;entryX=0.75;entryY=0;entryDx=0;entryDy=0;" edge="1" parent="WIyWlLk6GJQsqaUBKTNV-1" source="JXjOGkdLmgAwwefVi_oL-57" target="JXjOGkdLmgAwwefVi_oL-59">
          <mxGeometry relative="1" as="geometry" />
        </mxCell>
        <mxCell id="JXjOGkdLmgAwwefVi_oL-57" value="Create &lt;font face=&quot;Courier New&quot;&gt;&amp;lt;col&amp;gt;_{val in vals}&lt;/font&gt;" style="rounded=1;whiteSpace=wrap;html=1;glass=0;strokeWidth=1;shadow=0;" vertex="1" parent="WIyWlLk6GJQsqaUBKTNV-1">
          <mxGeometry x="560" y="1120" width="200" height="40" as="geometry" />
        </mxCell>
        <mxCell id="JXjOGkdLmgAwwefVi_oL-59" value="Prepared Dataset" style="rounded=1;whiteSpace=wrap;html=1;spacing=3;" vertex="1" parent="WIyWlLk6GJQsqaUBKTNV-1">
          <mxGeometry x="350" y="1210" width="230" height="40" as="geometry" />
        </mxCell>
        <mxCell id="JXjOGkdLmgAwwefVi_oL-62" value="Datetime?" style="rhombus;whiteSpace=wrap;html=1;spacing=3;" vertex="1" parent="WIyWlLk6GJQsqaUBKTNV-1">
          <mxGeometry x="350" y="550" width="160" height="80" as="geometry" />
        </mxCell>
      </root>
    </mxGraphModel>
  </diagram>
</mxfile>
